PathFileType	4	(X/Y/Z)	Patient4_TMGait_0pt4_03_right_15.trc.trc
DataRate	CameraRate	NumFrames	NumMarkers	Units	OrigDataRate	OrigDataStartFrame	OrigNumFrames
72.916666666667	72.916666666667	4	33	mm	72.916666666667	124	       141
Frame#	Time	Sacral			L.Shoulder			Chest			R.Shoulder			Neck			R.ASIS			L.ASIS			R.Thigh.Superior			R.Thigh.Lateral			R.Thigh.Inferior			R.Patella			L.Thigh.Superior			L.Thigh.Lateral			L.Thigh.Inferior			L.Patella			L.Shank.Superior			L.Shank.Lateral			L.Shank.Inferior			R.Shank.Superior			R.Shank.Lateral			R.Shank.Inferior			R.Heel			R.Midfoot.Superior			R.Midfoot.Lateral			R.Toe			L.Heel			L.Midfoot.Lateral			L.Midfoot.Superior			L.Toe			L.Elbow			L.Wrist			R.Elbow			R.Wrist			
		X1	Y1	Z1	X2	Y2	Z2	X3	Y3	Z3	X4	Y4	Z4	X5	Y5	Z5	X6	Y6	Z6	X7	Y7	Z7	X8	Y8	Z8	X9	Y9	Z9	X10	Y10	Z10	X11	Y11	Z11	X12	Y12	Z12	X13	Y13	Z13	X14	Y14	Z14	X15	Y15	Z15	X16	Y16	Z16	X17	Y17	Z17	X18	Y18	Z18	X19	Y19	Z19	X20	Y20	Z20	X21	Y21	Z21	X22	Y22	Z22	X23	Y23	Z23	X24	Y24	Z24	X25	Y25	Z25	X26	Y26	Z26	X27	Y27	Z27	X28	Y28	Z28	X29	Y29	Z29	X30	Y30	Z30	X31	Y31	Z31	X32	Y32	Z32	X33	Y33	Z33	

124	20.426857142857	838.377116695887	1003.383371095614	430.022122980171	1049.648072093792	1415.556957376298	241.870478260064	1130.109266640532	1356.410545819645	418.546657545388	1028.482143782843	1441.374581347217	577.004678178537	1014.449496957988	1488.744513992278	392.975674696550	1053.401549976064	941.982743460187	574.052484924439	1068.810407536883	952.516457761261	297.213329549900	1111.670509056171	750.603028344133	553.099483902880	1046.322541239516	634.977882169987	618.687753132999	1133.652035188082	588.774607709085	543.018955300674	1154.407339269590	508.690297816643	557.418225303285	1069.554895926011	727.021137746485	328.357266464012	958.079716795486	630.593029265068	258.314624574940	1017.677113917328	538.309028842543	324.217502533087	1001.938558923123	471.674765912273	332.063364371642	967.170210277943	405.277967137522	322.123065431487	862.291909165403	305.058648818969	267.872919668474	894.689529638444	186.844157323660	339.493370713462	1138.013266268147	421.036597604361	568.899386423958	1080.481518464610	308.754349761251	629.848865688706	1149.275145579221	221.650582630566	580.606822161811	1053.691006511416	42.908342683200	549.692174214605	1218.050975487732	105.956400748578	594.329092446730	1134.272333649325	39.010601379144	627.603946692334	1339.491146035475	62.797386802351	626.152103991619	752.399641197409	39.897745911806	382.156434364631	824.605681907724	34.979303990760	300.446910572151	909.047234423652	95.092019813440	326.652532085161	1036.868970314073	41.155334146727	294.893528673171	1085.856362600040	1067.550539869866	121.999572657099	1291.560108202107	908.445141069557	165.299229961817	905.866920607369	1120.762613315056	700.270935106852	914.586941958157	859.923718035106	722.811018182315	
125	20.440571428571	840.727982756043	1001.791528309462	432.981074379416	1049.150109389063	1415.527095351793	245.633329651376	1130.265139921802	1356.609713593356	422.123317831430	1028.131978732255	1440.395763238937	580.947540432966	1013.894945071541	1488.254859546396	396.993392721007	1056.429572970034	941.192766657012	576.418324295646	1071.572396638766	952.466597240703	299.564342593301	1115.941102135482	749.674428941529	554.770191931730	1049.119572790713	633.596860857626	618.940831436158	1137.014287292510	588.151649288105	543.678714177422	1156.502890951729	506.940687128846	557.126183546189	1070.962760173236	726.169541042445	329.655377765793	958.216510181984	630.456772231188	260.075514920462	1017.600393407048	537.532001583002	325.260355036933	1001.626828256910	470.415426254705	332.848120761842	965.646834968440	404.576265925158	322.909854705045	859.134439412602	305.919341875726	268.793210893302	890.410179740996	186.797773738514	339.536075336713	1138.759386238172	418.434910206397	568.262247010576	1078.953816710094	307.071863328707	628.796861436275	1145.284940423278	218.687650102626	578.961321378383	1045.204436500825	42.788339123675	547.713623545985	1210.533372990127	102.821664014984	592.537137044835	1125.273702382478	38.125962538825	626.262221391713	1331.313322512636	57.457253008571	625.476620296143	746.884586876013	40.656733969250	381.963625917129	819.170187530975	35.210468109093	300.410192144049	903.816135888787	95.179820618793	326.450315383848	1031.455059809788	40.810211689202	294.810180033716	1082.528252568822	1066.659009767781	126.387367730692	1286.926064525638	905.535410701785	168.807600490195	908.631410953819	1118.281565184766	703.659795582044	922.467677980719	857.387108632525	725.095544800420	
126	20.454285714286	843.101009132350	1000.442255565715	436.102192355618	1048.749628404858	1415.703690365275	249.543249967201	1130.509648683675	1356.974109213672	425.834183466042	1027.920740318911	1439.595732712655	585.038391760561	1013.436310272693	1487.961900680253	401.173205234534	1059.504703413486	940.667661640489	578.913785433033	1074.363600067001	952.627575195333	302.041219481796	1120.326900203068	749.111750415106	556.448137598677	1052.407408909198	632.677080919703	619.509730389433	1140.711411317497	587.893062835617	544.481271583772	1158.951217095704	505.471858438231	557.085793583077	1072.618133855578	725.553588524453	331.008963387466	958.772009539192	630.404251204420	261.954815302433	1018.234876504207	536.871284501179	326.291851823688	1002.148872526642	469.114791352140	333.502115617290	964.722362411656	403.901459844437	323.633903309299	856.373535788253	307.037710055072	269.788582176494	886.406510899095	186.927105153771	339.509075377087	1139.871939043945	416.224852441148	567.927634912421	1078.043221094335	305.838540625551	628.364413357816	1141.699719537235	216.153124864939	577.721039136874	1037.107072697487	42.761170112983	546.455001684085	1203.320769779418	100.365520955449	591.166127332889	1116.859968501189	37.518270654964	625.432822327931	1323.607528681632	53.098679249010	624.910319668611	741.415253760173	41.858860425890	381.717887634283	813.767763307400	35.607609939333	300.350551572704	898.747302645514	95.328961578609	326.134358173883	1026.058788824907	40.425756194301	294.711805059867	1078.919752173604	1065.968271268162	130.944016928524	1281.606759709989	902.193209900034	171.801004522647	911.961764005853	1115.819066970387	707.252347636519	931.465417739416	855.001660797961	727.636448221388	
127	20.468000000000	845.469221108780	999.396166683370	439.379477408401	1048.464555138465	1416.121431492114	253.577883024228	1130.847149898454	1357.518377071739	429.653544337944	1027.875507841726	1439.020372445406	589.245320113216	1013.088350913090	1487.896301623798	405.487474728856	1062.563524139792	940.430554910174	581.560509598156	1077.109590319074	952.999638234170	304.663492386129	1124.636034366796	748.904406611464	558.152121418527	1056.037951919998	632.213322717281	620.450905022905	1144.524008351660	587.941717554589	545.443167251441	1161.555798084809	504.291319601705	557.366318400375	1074.556956601887	725.213190411412	332.471845587194	959.869788960861	630.425257887873	263.937940355012	1019.744977309266	536.340235881006	327.299629860173	1003.672469336152	467.777955329469	333.967615759231	964.542046082301	403.258721507599	324.253166954301	854.138788820568	308.460270628673	270.833523168527	882.776767965130	187.283791304236	339.385186847503	1141.196410105791	414.448166408026	567.942048508004	1077.662175792959	305.039906031426	628.540788642525	1138.562523837130	214.118610553393	576.908850024225	1029.674649218334	42.807131779919	545.825685859758	1196.641743291595	98.635825812843	590.246895989625	1109.273887820082	37.164178257532	625.048211064637	1316.587043824649	49.814903466212	624.494359800053	736.040139380954	43.643695449662	381.414798079146	808.421140713619	36.245201697126	300.262326358088	893.902153235625	95.557531609001	325.680187434753	1020.678340589418	40.014550829688	294.601121068732	1075.072805055140	1065.531346394670	135.671142450645	1275.575898846378	898.454000349967	174.260062101810	915.844766391406	1113.466279315074	711.029588325682	941.538028308649	852.911692017403	730.411818853836	
